<svg version="1.1" id="Layer_1" xmlns="http://www.w3.org/2000/svg" xmlns:xlink="http://www.w3.org/1999/xlink" x="0px" y="0px"
	 width="300px" viewBox="0 0 806 176" enable-background="new 0 0 806 176" xml:space="preserve">
<path fill="#FEFEFE" opacity="1.000000" stroke="none" 
	d="
M603.000000,177.000000 
	C402.000031,177.000000 201.500046,177.000000 1.000054,177.000000 
	C1.000036,118.333366 1.000036,59.666729 1.000018,1.000070 
	C269.666595,1.000046 538.333191,1.000046 806.999878,1.000023 
	C806.999878,59.666595 806.999878,118.333191 806.999939,176.999893 
	C739.166687,177.000000 671.333313,177.000000 603.000000,177.000000 
M128.402725,150.110718 
	C138.348236,158.266113 150.057846,158.998199 161.991989,157.444809 
	C180.199112,155.074890 189.542526,143.985107 189.543060,125.633141 
	C189.543594,107.489166 189.543182,89.345200 189.543182,71.201225 
	C189.543182,68.567406 189.543182,65.933578 189.543182,62.821064 
	C185.146637,62.821064 181.179688,63.028099 177.245911,62.755760 
	C174.080826,62.536640 171.812500,62.988895 171.998764,66.931648 
	C153.655167,56.682163 135.993515,62.423447 126.558777,73.264603 
	C115.548599,85.916016 114.629578,104.228119 124.108047,117.057884 
	C134.929611,131.705597 150.973282,134.803604 171.878128,126.282204 
	C173.068741,132.890198 170.572281,138.026779 164.547684,140.149353 
	C155.680252,143.273483 146.988525,143.591827 139.083344,137.262741 
	C138.259537,136.603180 136.987518,136.223465 135.914047,136.202774 
	C130.473343,136.097916 125.029549,136.154495 117.833878,136.154495 
	C121.656151,141.367706 124.724373,145.552475 128.402725,150.110718 
M453.391266,65.110161 
	C435.335052,57.531731 418.139404,62.450680 407.845978,78.138725 
	C393.993530,99.251053 408.905640,129.225037 434.113434,131.259048 
	C442.354950,131.924026 449.866455,130.214325 456.959564,125.733597 
	C457.813904,132.948547 455.335846,138.065338 449.766510,140.070267 
	C440.912659,143.257660 432.203491,143.614914 424.244415,137.386230 
	C423.502899,136.805939 422.503510,136.233292 421.613556,136.216904 
	C415.911407,136.111877 410.206421,136.163315 404.198486,136.163315 
	C406.745605,143.424210 410.465759,148.922928 416.638123,152.590088 
	C425.832153,158.052460 435.887299,158.805084 446.120697,157.592850 
	C464.744873,155.386673 474.543152,144.095612 474.543488,125.383095 
	C474.543793,106.386093 474.543549,87.389091 474.543549,68.392090 
	C474.543549,66.629356 474.543579,64.866615 474.543579,63.014050 
	C468.580017,63.014050 463.294312,63.014050 457.885895,63.014050 
	C457.576080,64.374321 457.301666,65.579094 456.966766,67.049469 
	C455.799805,66.416710 454.938995,65.949944 453.391266,65.110161 
M14.636470,113.793793 
	C27.334896,133.455017 44.358047,137.039352 65.049545,127.270882 
	C65.347061,128.546066 65.636208,129.785370 65.914528,130.978256 
	C71.470970,130.978256 76.763054,130.978256 82.224449,130.978256 
	C82.224449,99.555107 82.224449,68.336578 82.224449,36.985092 
	C76.600052,36.985092 71.299660,36.985092 65.416031,36.985092 
	C65.416031,47.345490 65.416031,57.555882 65.416031,68.224602 
	C49.389893,59.960358 34.553879,60.208298 21.520067,72.393501 
	C9.921062,83.237320 7.630315,98.239540 14.636470,113.793793 
M257.004700,103.306168 
	C259.928314,123.893669 284.200867,141.593399 309.992615,127.828644 
	C311.521698,129.093796 312.711914,130.918396 314.041260,131.026123 
	C318.621857,131.397324 323.251068,131.168915 327.834869,131.168915 
	C327.834869,108.410187 327.834869,86.212288 327.834869,63.829021 
	C323.634552,63.829021 319.792145,64.076691 315.998352,63.753826 
	C312.724335,63.475201 310.682465,64.213219 310.884521,68.016380 
	C296.155426,60.533482 283.136993,60.678730 271.748383,68.707619 
	C260.116547,76.908012 255.163956,88.266205 257.004700,103.306168 
M708.397583,131.170761 
	C711.722351,131.806519 712.126892,130.059586 712.112061,127.223465 
	C712.006897,107.067039 712.061218,86.909813 712.036499,66.752876 
	C712.035400,65.817360 711.765625,64.882164 711.640137,64.070404 
	C706.059753,64.070404 700.770203,64.070404 695.436401,64.070404 
	C695.188293,65.497810 694.979675,66.698341 694.754456,67.994034 
	C668.738403,54.339668 648.081604,69.392944 642.370483,85.487793 
	C638.941833,95.150177 639.157715,104.852730 644.307556,113.477669 
	C656.520569,133.931931 674.147888,136.761581 694.837952,127.361137 
	C695.086426,128.630463 695.323853,129.843445 695.583679,131.170990 
	C699.775574,131.170990 703.600098,131.170990 708.397583,131.170761 
M496.554565,69.006248 
	C495.110779,70.383797 493.575989,71.678673 492.237854,73.152176 
	C482.760925,83.588150 480.533356,99.744408 486.719879,112.796478 
	C492.903809,125.843109 506.003113,133.981323 519.893188,133.406113 
	C535.275940,132.769089 547.788330,123.991951 552.938049,110.225967 
	C558.670288,94.902786 553.777954,78.218864 540.317627,67.936928 
	C529.542053,59.705734 511.590057,57.487804 496.554565,69.006248 
M739.359985,99.012154 
	C739.359985,87.107605 739.359985,75.203056 739.359985,63.277588 
	C733.291870,63.277588 727.885742,63.277588 722.116516,63.277588 
	C722.116516,72.508354 722.005798,81.463341 722.153625,90.414047 
	C722.260437,96.884415 722.152283,103.435181 723.132751,109.797096 
	C724.799438,120.610718 730.528198,129.022537 741.542236,131.712708 
	C754.149597,134.792023 766.580444,134.510849 775.537842,122.916252 
	C777.814270,119.969513 780.259338,116.295715 780.522949,112.797470 
	C781.763123,96.336189 782.270996,79.819740 783.041443,63.295883 
	C776.253174,63.295883 770.849487,63.295883 765.116821,63.295883 
	C765.116821,74.880836 765.186584,86.168633 765.074890,97.454651 
	C765.040649,100.922668 764.902100,104.476616 764.124451,107.832031 
	C762.553223,114.611389 758.668335,117.476669 752.102356,117.395302 
	C745.955750,117.319130 742.128540,114.293121 740.480408,107.815231 
	C739.830078,105.259361 739.753418,102.557549 739.359985,99.012154 
M580.755737,124.810059 
	C581.008362,125.424011 581.397156,126.017647 581.492310,126.655098 
	C582.285522,131.970306 586.166870,131.386017 590.081055,131.660339 
	C594.086975,131.941086 595.505432,129.999786 596.825500,126.780945 
	C601.548096,115.265335 606.494324,103.841370 611.362793,92.385658 
	C615.433350,82.807472 619.513611,73.233406 623.872131,62.993557 
	C621.322388,62.993557 619.555908,62.994179 617.789429,62.993454 
	C606.386475,62.988781 606.400146,62.994522 601.970032,73.361801 
	C597.845032,83.015015 593.686768,92.654007 589.090881,103.352112 
	C583.010986,89.191216 577.407043,76.138725 571.904114,63.321499 
	C566.029419,63.321499 560.488892,63.321499 554.368530,63.321499 
	C563.176880,83.922958 571.775574,104.034073 580.755737,124.810059 
M245.523132,65.747353 
	C249.781967,65.747353 254.040802,65.747353 258.311951,65.747353 
	C258.311951,60.157078 258.311951,55.388077 258.311951,50.013744 
	C253.728165,50.013744 249.360367,50.013744 244.620087,50.013744 
	C244.620087,45.306892 244.620087,41.210644 244.620087,37.035038 
	C238.962677,37.035038 233.702820,37.035038 228.247406,37.035038 
	C228.247406,68.439354 228.247406,99.630783 228.247406,130.790833 
	C233.872055,130.790833 239.234436,130.790833 244.945435,130.790833 
	C244.945435,109.122551 244.945435,87.839828 245.523132,65.747353 
M355.716705,99.500076 
	C355.716705,78.565544 355.716705,57.631016 355.716705,36.570560 
	C349.695282,36.570560 344.140533,36.570560 338.602966,36.570560 
	C338.602966,68.398987 338.602966,99.939041 338.602966,131.341187 
	C344.489410,131.341187 350.048950,131.341187 355.716644,131.341187 
	C355.716644,120.810684 355.716644,110.655380 355.716705,99.500076 
M212.335617,62.917824 
	C208.204453,62.917824 204.073288,62.917824 199.724808,62.917824 
	C199.724808,86.010353 199.724808,108.711121 199.724808,131.336502 
	C205.576828,131.336502 211.126358,131.336502 216.818954,131.336502 
	C216.818954,109.327057 216.769363,87.695602 216.878403,66.064941 
	C216.892899,63.190369 215.637817,62.649490 212.335617,62.917824 
M109.715057,86.500107 
	C109.715057,78.728058 109.715057,70.956009 109.715057,63.161331 
	C103.639244,63.161331 98.205200,63.161331 92.609627,63.161331 
	C92.609627,86.099770 92.609627,108.793541 92.609627,131.333313 
	C98.498955,131.333313 104.057106,131.333313 109.714981,131.333313 
	C109.714981,116.467934 109.714981,101.984016 109.715057,86.500107 
M388.688965,113.954094 
	C388.073853,113.371162 387.470306,112.296989 386.841797,112.282143 
	C381.250122,112.150085 375.654022,112.205299 369.843475,112.205299 
	C369.843475,118.708031 369.843475,124.782295 369.843475,130.964081 
	C376.127960,130.964081 382.189575,130.964081 388.701813,130.964081 
	C388.701813,125.425468 388.701813,120.151360 388.688965,113.954094 
M639.011963,126.335373 
	C639.011963,121.906120 639.011963,117.476868 639.011963,113.106834 
	C632.402954,113.106834 626.368469,113.106834 620.255981,113.106834 
	C620.255981,119.357269 620.255981,125.269341 620.255981,131.428741 
	C626.513489,131.428741 632.557739,131.428741 638.807678,131.428741 
	C638.884155,129.877762 638.948059,128.582703 639.011963,126.335373 
M199.435272,30.768923 
	C199.435272,35.058430 199.435272,39.347939 199.435272,43.651081 
	C205.492676,43.651081 211.030640,43.651081 216.460403,43.651081 
	C216.460403,37.876606 216.460403,32.476357 216.460403,26.854221 
	C211.455856,26.854221 206.792603,26.688459 202.159668,26.989447 
	C201.194626,27.052143 200.341782,28.841642 199.435272,30.768923 
M109.710533,37.400066 
	C109.710533,33.970566 109.710533,30.541065 109.710533,27.122269 
	C103.593002,27.122269 98.166748,27.122269 92.558365,27.122269 
	C92.558365,32.800117 92.558365,38.205669 92.558365,43.650467 
	C98.367355,43.650467 103.900154,43.650467 109.710457,43.650467 
	C109.710457,41.638882 109.710457,39.995094 109.710533,37.400066 
z"/>
<path fill="#214053" opacity="1.000000" stroke="none" 
	d="
M128.097656,149.923981 
	C124.724373,145.552475 121.656151,141.367706 117.833878,136.154495 
	C125.029549,136.154495 130.473343,136.097916 135.914047,136.202774 
	C136.987518,136.223465 138.259537,136.603180 139.083344,137.262741 
	C146.988525,143.591827 155.680252,143.273483 164.547684,140.149353 
	C170.572281,138.026779 173.068741,132.890198 171.878128,126.282204 
	C150.973282,134.803604 134.929611,131.705597 124.108047,117.057884 
	C114.629578,104.228119 115.548599,85.916016 126.558777,73.264603 
	C135.993515,62.423447 153.655167,56.682163 171.998764,66.931648 
	C171.812500,62.988895 174.080826,62.536640 177.245911,62.755760 
	C181.179688,63.028099 185.146637,62.821064 189.543182,62.821064 
	C189.543182,65.933578 189.543182,68.567406 189.543182,71.201225 
	C189.543182,89.345200 189.543594,107.489166 189.543060,125.633141 
	C189.542526,143.985107 180.199112,155.074890 161.991989,157.444809 
	C150.057846,158.998199 138.348236,158.266113 128.097656,149.923981 
M150.198837,115.907928 
	C151.026871,115.998993 151.853180,116.111267 152.683182,116.177841 
	C161.105194,116.853416 169.129288,112.177193 172.496033,104.639442 
	C175.866394,97.093575 173.890549,87.738525 167.762680,82.228470 
	C161.092010,76.230331 152.118332,74.998741 144.665604,79.389854 
	C137.815796,83.425713 134.133499,89.407204 134.732300,97.592545 
	C135.421112,107.008278 140.529602,112.865250 150.198837,115.907928 
z"/>
<path fill="#214153" opacity="1.000000" stroke="none" 
	d="
M453.734741,65.296677 
	C454.938995,65.949944 455.799805,66.416710 456.966766,67.049469 
	C457.301666,65.579094 457.576080,64.374321 457.885895,63.014050 
	C463.294312,63.014050 468.580017,63.014050 474.543579,63.014050 
	C474.543579,64.866615 474.543549,66.629356 474.543549,68.392090 
	C474.543549,87.389091 474.543793,106.386093 474.543488,125.383095 
	C474.543152,144.095612 464.744873,155.386673 446.120697,157.592850 
	C435.887299,158.805084 425.832153,158.052460 416.638123,152.590088 
	C410.465759,148.922928 406.745605,143.424210 404.198486,136.163315 
	C410.206421,136.163315 415.911407,136.111877 421.613556,136.216904 
	C422.503510,136.233292 423.502899,136.805939 424.244415,137.386230 
	C432.203491,143.614914 440.912659,143.257660 449.766510,140.070267 
	C455.335846,138.065338 457.813904,132.948547 456.959564,125.733597 
	C449.866455,130.214325 442.354950,131.924026 434.113434,131.259048 
	C408.905640,129.225037 393.993530,99.251053 407.845978,78.138725 
	C418.139404,62.450680 435.335052,57.531731 453.734741,65.296677 
M444.523285,115.556595 
	C445.458221,115.218391 446.415985,114.932198 447.324585,114.533852 
	C455.200745,111.080894 459.599060,103.723946 459.030121,94.996155 
	C458.520569,87.180176 452.577026,79.884903 444.825165,77.560692 
	C437.214508,75.278816 428.241638,78.244743 423.429596,84.632820 
	C418.804962,90.772095 418.102905,100.157509 422.301056,106.699280 
	C427.288940,114.471664 434.612122,117.433235 444.523285,115.556595 
z"/>
<path fill="#224154" opacity="1.000000" stroke="none" 
	d="
M14.431150,113.477615 
	C7.630315,98.239540 9.921062,83.237320 21.520067,72.393501 
	C34.553879,60.208298 49.389893,59.960358 65.416031,68.224602 
	C65.416031,57.555882 65.416031,47.345490 65.416031,36.985092 
	C71.299660,36.985092 76.600052,36.985092 82.224449,36.985092 
	C82.224449,68.336578 82.224449,99.555107 82.224449,130.978256 
	C76.763054,130.978256 71.470970,130.978256 65.914528,130.978256 
	C65.636208,129.785370 65.347061,128.546066 65.049545,127.270882 
	C44.358047,137.039352 27.334896,133.455017 14.431150,113.477615 
M49.221119,117.187279 
	C58.972340,115.649307 65.458412,109.650787 66.875519,100.859940 
	C68.181534,92.758224 64.290741,84.383240 57.408794,80.482719 
	C49.723610,76.126938 40.359741,77.142319 33.866577,83.035568 
	C28.195007,88.183121 25.970043,97.161194 28.916945,104.540306 
	C32.383003,113.219383 39.166656,117.174873 49.221119,117.187279 
z"/>
<path fill="#1E3E51" opacity="1.000000" stroke="none" 
	d="
M256.967773,102.883850 
	C255.163956,88.266205 260.116547,76.908012 271.748383,68.707619 
	C283.136993,60.678730 296.155426,60.533482 310.884521,68.016380 
	C310.682465,64.213219 312.724335,63.475201 315.998352,63.753826 
	C319.792145,64.076691 323.634552,63.829021 327.834869,63.829021 
	C327.834869,86.212288 327.834869,108.410187 327.834869,131.168915 
	C323.251068,131.168915 318.621857,131.397324 314.041260,131.026123 
	C312.711914,130.918396 311.521698,129.093796 309.992615,127.828644 
	C284.200867,141.593399 259.928314,123.893669 256.967773,102.883850 
M304.855164,113.532349 
	C305.829742,112.628006 306.887543,111.797440 307.765350,110.807281 
	C313.245239,104.625923 314.570465,97.633270 311.399170,89.990204 
	C308.306793,82.537231 302.464111,78.447464 294.535217,77.932068 
	C286.403839,77.403519 279.980286,80.804298 275.908173,88.007957 
	C271.466248,95.865845 272.963379,105.380936 279.473236,111.796097 
	C285.998962,118.226898 294.930939,119.006218 304.855164,113.532349 
z"/>
<path fill="#1E3E51" opacity="1.000000" stroke="none" 
	d="
M707.911133,131.170868 
	C703.600098,131.170990 699.775574,131.170990 695.583679,131.170990 
	C695.323853,129.843445 695.086426,128.630463 694.837952,127.361137 
	C674.147888,136.761581 656.520569,133.931931 644.307556,113.477669 
	C639.157715,104.852730 638.941833,95.150177 642.370483,85.487793 
	C648.081604,69.392944 668.738403,54.339668 694.754456,67.994034 
	C694.979675,66.698341 695.188293,65.497810 695.436401,64.070404 
	C700.770203,64.070404 706.059753,64.070404 711.640137,64.070404 
	C711.765625,64.882164 712.035400,65.817360 712.036499,66.752876 
	C712.061218,86.909813 712.006897,107.067039 712.112061,127.223465 
	C712.126892,130.059586 711.722351,131.806519 707.911133,131.170868 
M658.548706,90.336830 
	C655.507385,98.547058 657.306824,105.784767 663.404419,111.806183 
	C668.973206,117.305489 675.810486,118.681961 683.205933,116.248795 
	C691.671204,113.463654 697.405579,105.149834 696.890503,96.888374 
	C696.312622,87.620193 689.967346,80.153664 680.979980,78.166374 
	C672.145020,76.212799 663.616821,80.635994 658.548706,90.336830 
z"/>
<path fill="#1F3F51" opacity="1.000000" stroke="none" 
	d="
M496.838257,68.785095 
	C511.590057,57.487804 529.542053,59.705734 540.317627,67.936928 
	C553.777954,78.218864 558.670288,94.902786 552.938049,110.225967 
	C547.788330,123.991951 535.275940,132.769089 519.893188,133.406113 
	C506.003113,133.981323 492.903809,125.843109 486.719879,112.796478 
	C480.533356,99.744408 482.760925,83.588150 492.237854,73.152176 
	C493.575989,71.678673 495.110779,70.383797 496.838257,68.785095 
M522.089417,77.927925 
	C509.241943,76.838326 500.791443,84.397690 500.720734,97.043175 
	C500.649261,109.828964 508.723816,117.782776 520.909912,116.930504 
	C529.966736,116.297073 536.867981,109.236145 537.859985,99.588188 
	C538.960083,88.888611 533.421814,80.868889 522.089417,77.927925 
z"/>
<path fill="#1F3E51" opacity="1.000000" stroke="none" 
	d="
M739.387695,99.467178 
	C739.753418,102.557549 739.830078,105.259361 740.480408,107.815231 
	C742.128540,114.293121 745.955750,117.319130 752.102356,117.395302 
	C758.668335,117.476669 762.553223,114.611389 764.124451,107.832031 
	C764.902100,104.476616 765.040649,100.922668 765.074890,97.454651 
	C765.186584,86.168633 765.116821,74.880836 765.116821,63.295883 
	C770.849487,63.295883 776.253174,63.295883 783.041443,63.295883 
	C782.270996,79.819740 781.763123,96.336189 780.522949,112.797470 
	C780.259338,116.295715 777.814270,119.969513 775.537842,122.916252 
	C766.580444,134.510849 754.149597,134.792023 741.542236,131.712708 
	C730.528198,129.022537 724.799438,120.610718 723.132751,109.797096 
	C722.152283,103.435181 722.260437,96.884415 722.153625,90.414047 
	C722.005798,81.463341 722.116516,72.508354 722.116516,63.277588 
	C727.885742,63.277588 733.291870,63.277588 739.359985,63.277588 
	C739.359985,75.203056 739.359985,87.107605 739.387695,99.467178 
z"/>
<path fill="#203F52" opacity="1.000000" stroke="none" 
	d="
M580.565063,124.477615 
	C571.775574,104.034073 563.176880,83.922958 554.368530,63.321499 
	C560.488892,63.321499 566.029419,63.321499 571.904114,63.321499 
	C577.407043,76.138725 583.010986,89.191216 589.090881,103.352112 
	C593.686768,92.654007 597.845032,83.015015 601.970032,73.361801 
	C606.400146,62.994522 606.386475,62.988781 617.789429,62.993454 
	C619.555908,62.994179 621.322388,62.993557 623.872131,62.993557 
	C619.513611,73.233406 615.433350,82.807472 611.362793,92.385658 
	C606.494324,103.841370 601.548096,115.265335 596.825500,126.780945 
	C595.505432,129.999786 594.086975,131.941086 590.081055,131.660339 
	C586.166870,131.386017 582.285522,131.970306 581.492310,126.655098 
	C581.397156,126.017647 581.008362,125.424011 580.565063,124.477615 
z"/>
<path fill="#214053" opacity="1.000000" stroke="none" 
	d="
M245.234283,66.152222 
	C244.945435,87.839828 244.945435,109.122551 244.945435,130.790833 
	C239.234436,130.790833 233.872055,130.790833 228.247406,130.790833 
	C228.247406,99.630783 228.247406,68.439354 228.247406,37.035038 
	C233.702820,37.035038 238.962677,37.035038 244.620087,37.035038 
	C244.620087,41.210644 244.620087,45.306892 244.620087,50.013744 
	C249.360367,50.013744 253.728165,50.013744 258.311951,50.013744 
	C258.311951,55.388077 258.311951,60.157078 258.311951,65.747353 
	C254.040802,65.747353 249.781967,65.747353 245.234283,66.152222 
z"/>
<path fill="#284658" opacity="1.000000" stroke="none" 
	d="
M355.716675,100.000076 
	C355.716644,110.655380 355.716644,120.810684 355.716644,131.341187 
	C350.048950,131.341187 344.489410,131.341187 338.602966,131.341187 
	C338.602966,99.939041 338.602966,68.398987 338.602966,36.570560 
	C344.140533,36.570560 349.695282,36.570560 355.716705,36.570560 
	C355.716705,57.631016 355.716705,78.565544 355.716675,100.000076 
z"/>
<path fill="#274658" opacity="1.000000" stroke="none" 
	d="
M212.811218,62.917946 
	C215.637817,62.649490 216.892899,63.190369 216.878403,66.064941 
	C216.769363,87.695602 216.818954,109.327057 216.818954,131.336502 
	C211.126358,131.336502 205.576828,131.336502 199.724808,131.336502 
	C199.724808,108.711121 199.724808,86.010353 199.724808,62.917824 
	C204.073288,62.917824 208.204453,62.917824 212.811218,62.917946 
z"/>
<path fill="#274658" opacity="1.000000" stroke="none" 
	d="
M109.715019,87.000099 
	C109.714981,101.984016 109.714981,116.467934 109.714981,131.333313 
	C104.057106,131.333313 98.498955,131.333313 92.609627,131.333313 
	C92.609627,108.793541 92.609627,86.099770 92.609627,63.161331 
	C98.205200,63.161331 103.639244,63.161331 109.715057,63.161331 
	C109.715057,70.956009 109.715057,78.728058 109.715019,87.000099 
z"/>
<path fill="#244355" opacity="1.000000" stroke="none" 
	d="
M388.695374,114.415672 
	C388.701813,120.151360 388.701813,125.425468 388.701813,130.964081 
	C382.189575,130.964081 376.127960,130.964081 369.843475,130.964081 
	C369.843475,124.782295 369.843475,118.708031 369.843475,112.205299 
	C375.654022,112.205299 381.250122,112.150085 386.841797,112.282143 
	C387.470306,112.296989 388.073853,113.371162 388.695374,114.415672 
z"/>
<path fill="#224154" opacity="1.000000" stroke="none" 
	d="
M639.011963,126.811501 
	C638.948059,128.582703 638.884155,129.877762 638.807678,131.428741 
	C632.557739,131.428741 626.513489,131.428741 620.255981,131.428741 
	C620.255981,125.269341 620.255981,119.357269 620.255981,113.106834 
	C626.368469,113.106834 632.402954,113.106834 639.011963,113.106834 
	C639.011963,117.476868 639.011963,121.906120 639.011963,126.811501 
z"/>
<path fill="#264557" opacity="1.000000" stroke="none" 
	d="
M199.436249,30.302137 
	C200.341782,28.841642 201.194626,27.052143 202.159668,26.989447 
	C206.792603,26.688459 211.455856,26.854221 216.460403,26.854221 
	C216.460403,32.476357 216.460403,37.876606 216.460403,43.651081 
	C211.030640,43.651081 205.492676,43.651081 199.435272,43.651081 
	C199.435272,39.347939 199.435272,35.058430 199.436249,30.302137 
z"/>
<path fill="#264557" opacity="1.000000" stroke="none" 
	d="
M109.710495,37.875687 
	C109.710457,39.995094 109.710457,41.638882 109.710457,43.650467 
	C103.900154,43.650467 98.367355,43.650467 92.558365,43.650467 
	C92.558365,38.205669 92.558365,32.800117 92.558365,27.122269 
	C98.166748,27.122269 103.593002,27.122269 109.710533,27.122269 
	C109.710533,30.541065 109.710533,33.970566 109.710495,37.875687 
z"/>
<path fill="#FDFDFD" opacity="1.000000" stroke="none" 
	d="
M149.800446,115.778038 
	C140.529602,112.865250 135.421112,107.008278 134.732300,97.592545 
	C134.133499,89.407204 137.815796,83.425713 144.665604,79.389854 
	C152.118332,74.998741 161.092010,76.230331 167.762680,82.228470 
	C173.890549,87.738525 175.866394,97.093575 172.496033,104.639442 
	C169.129288,112.177193 161.105194,116.853416 152.683182,116.177841 
	C151.853180,116.111267 151.026871,115.998993 149.800446,115.778038 
z"/>
<path fill="#FDFDFD" opacity="1.000000" stroke="none" 
	d="
M444.129211,115.706818 
	C434.612122,117.433235 427.288940,114.471664 422.301056,106.699280 
	C418.102905,100.157509 418.804962,90.772095 423.429596,84.632820 
	C428.241638,78.244743 437.214508,75.278816 444.825165,77.560692 
	C452.577026,79.884903 458.520569,87.180176 459.030121,94.996155 
	C459.599060,103.723946 455.200745,111.080894 447.324585,114.533852 
	C446.415985,114.932198 445.458221,115.218391 444.129211,115.706818 
z"/>
<path fill="#FDFDFE" opacity="1.000000" stroke="none" 
	d="
M48.789402,117.242691 
	C39.166656,117.174873 32.383003,113.219383 28.916945,104.540306 
	C25.970043,97.161194 28.195007,88.183121 33.866577,83.035568 
	C40.359741,77.142319 49.723610,76.126938 57.408794,80.482719 
	C64.290741,84.383240 68.181534,92.758224 66.875519,100.859940 
	C65.458412,109.650787 58.972340,115.649307 48.789402,117.242691 
z"/>
<path fill="#FDFDFD" opacity="1.000000" stroke="none" 
	d="
M304.549561,113.744865 
	C294.930939,119.006218 285.998962,118.226898 279.473236,111.796097 
	C272.963379,105.380936 271.466248,95.865845 275.908173,88.007957 
	C279.980286,80.804298 286.403839,77.403519 294.535217,77.932068 
	C302.464111,78.447464 308.306793,82.537231 311.399170,89.990204 
	C314.570465,97.633270 313.245239,104.625923 307.765350,110.807281 
	C306.887543,111.797440 305.829742,112.628006 304.549561,113.744865 
z"/>
<path fill="#FCFDFD" opacity="1.000000" stroke="none" 
	d="
M658.713745,89.983063 
	C663.616821,80.635994 672.145020,76.212799 680.979980,78.166374 
	C689.967346,80.153664 696.312622,87.620193 696.890503,96.888374 
	C697.405579,105.149834 691.671204,113.463654 683.205933,116.248795 
	C675.810486,118.681961 668.973206,117.305489 663.404419,111.806183 
	C657.306824,105.784767 655.507385,98.547058 658.713745,89.983063 
z"/>
<path fill="#FCFDFD" opacity="1.000000" stroke="none" 
	d="
M522.522461,77.966812 
	C533.421814,80.868889 538.960083,88.888611 537.859985,99.588188 
	C536.867981,109.236145 529.966736,116.297073 520.909912,116.930504 
	C508.723816,117.782776 500.649261,109.828964 500.720734,97.043175 
	C500.791443,84.397690 509.241943,76.838326 522.522461,77.966812 
z"/>
</svg>